<mxfile host="app.diagrams.net" modified="2023-12-27T06:19:37.029Z" agent="Mozilla/5.0 (Windows NT 10.0; Win64; x64) AppleWebKit/537.36 (KHTML, like Gecko) Chrome/120.0.0.0 Safari/537.36" etag="oUjGAHXkRBtae4cTHes-" version="22.1.11" type="github">
  <diagram name="第 1 页" id="vUpB62riLFgZIzcrb4dn">
    <mxGraphModel dx="1434" dy="738" grid="1" gridSize="10" guides="1" tooltips="1" connect="1" arrows="1" fold="1" page="1" pageScale="1" pageWidth="827" pageHeight="1169" math="1" shadow="0">
      <root>
        <mxCell id="0" />
        <mxCell id="1" parent="0" />
        <mxCell id="N6eUA97ssRl3NSmHeEUC-1" value="$${X}$$" style="text;html=1;align=center;verticalAlign=middle;resizable=0;points=[];autosize=1;strokeColor=none;fillColor=none;fontSize=15;" vertex="1" parent="1">
          <mxGeometry x="20" y="285" width="80" height="30" as="geometry" />
        </mxCell>
        <mxCell id="N6eUA97ssRl3NSmHeEUC-2" value="" style="endArrow=classic;html=1;rounded=0;exitX=0.722;exitY=0.5;exitDx=0;exitDy=0;exitPerimeter=0;" edge="1" parent="1" source="N6eUA97ssRl3NSmHeEUC-1">
          <mxGeometry width="50" height="50" relative="1" as="geometry">
            <mxPoint x="390" y="410" as="sourcePoint" />
            <mxPoint x="140" y="300" as="targetPoint" />
          </mxGeometry>
        </mxCell>
        <mxCell id="N6eUA97ssRl3NSmHeEUC-3" value="编码器" style="rounded=1;whiteSpace=wrap;html=1;fontSize=15;fillColor=#dae8fc;strokeColor=#6c8ebf;" vertex="1" parent="1">
          <mxGeometry x="150" y="275" width="100" height="50" as="geometry" />
        </mxCell>
        <mxCell id="N6eUA97ssRl3NSmHeEUC-4" value="" style="endArrow=classic;html=1;rounded=0;exitX=1;exitY=0.5;exitDx=0;exitDy=0;exitPerimeter=0;" edge="1" parent="1">
          <mxGeometry width="50" height="50" relative="1" as="geometry">
            <mxPoint x="260" y="299.5" as="sourcePoint" />
            <mxPoint x="320" y="299.5" as="targetPoint" />
          </mxGeometry>
        </mxCell>
        <mxCell id="N6eUA97ssRl3NSmHeEUC-8" value="" style="endArrow=classic;html=1;rounded=0;exitX=1;exitY=0.5;exitDx=0;exitDy=0;exitPerimeter=0;" edge="1" parent="1">
          <mxGeometry width="50" height="50" relative="1" as="geometry">
            <mxPoint x="354" y="299.5" as="sourcePoint" />
            <mxPoint x="414" y="299.5" as="targetPoint" />
          </mxGeometry>
        </mxCell>
        <mxCell id="N6eUA97ssRl3NSmHeEUC-9" value="&lt;svg style=&quot;vertical-align: 0px; font-size: 15px;&quot; xmlns:xlink=&quot;http://www.w3.org/1999/xlink&quot; viewBox=&quot;0 -809 1218.3 809&quot; role=&quot;img&quot; height=&quot;1.83ex&quot; width=&quot;2.756ex&quot; xmlns=&quot;http://www.w3.org/2000/svg&quot;&gt;&lt;defs style=&quot;font-size: 15px;&quot;&gt;&lt;path d=&quot;M228 637Q194 637 192 641Q191 643 191 649Q191 673 202 682Q204 683 219 683Q260 681 355 681Q389 681 418 681T463 682T483 682Q499 682 499 672Q499 670 497 658Q492 641 487 638H485Q483 638 480 638T473 638T464 637T455 637Q416 636 405 634T387 623Q384 619 355 500Q348 474 340 442T328 395L324 380Q324 378 469 378H614L615 381Q615 384 646 504Q674 619 674 627T617 637Q594 637 587 639T580 648Q580 650 582 660Q586 677 588 679T604 682Q609 682 646 681T740 680Q802 680 835 681T871 682Q888 682 888 672Q888 645 876 638H874Q872 638 869 638T862 638T853 637T844 637Q805 636 794 634T776 623Q773 618 704 340T634 58Q634 51 638 51Q646 48 692 46H723Q729 38 729 37T726 19Q722 6 716 0H701Q664 2 567 2Q533 2 504 2T458 2T437 1Q420 1 420 10Q420 15 423 24Q428 43 433 45Q437 46 448 46H454Q481 46 514 49Q520 50 522 50T528 55T534 64T540 82T547 110T558 153Q565 181 569 198Q602 330 602 331T457 332H312L279 197Q245 63 245 58Q245 51 253 49T303 46H334Q340 38 340 37T337 19Q333 6 327 0H312Q275 2 178 2Q144 2 115 2T69 2T48 1Q31 1 31 10Q31 12 34 24Q39 43 44 45Q48 46 59 46H65Q92 46 125 49Q139 52 144 61Q147 65 216 339T285 628Q285 635 228 637Z&quot; id=&quot;MJX-1-TEX-I-1D43B&quot; style=&quot;font-size: 15px;&quot;&gt;&lt;/path&gt;&lt;path d=&quot;M79 43Q73 43 52 49T30 61Q30 68 85 293T146 528Q161 560 198 560Q218 560 240 545T262 501Q262 496 260 486Q259 479 173 263T84 45T79 43Z&quot; id=&quot;MJX-1-TEX-V-2032&quot; style=&quot;font-size: 15px;&quot;&gt;&lt;/path&gt;&lt;/defs&gt;&lt;g transform=&quot;scale(1,-1)&quot; stroke-width=&quot;0&quot; fill=&quot;currentColor&quot; stroke=&quot;currentColor&quot; style=&quot;font-size: 15px;&quot;&gt;&lt;g data-mml-node=&quot;math&quot; style=&quot;font-size: 15px;&quot;&gt;&lt;g data-mml-node=&quot;msup&quot; style=&quot;font-size: 15px;&quot;&gt;&lt;g data-mjx-texclass=&quot;ORD&quot; data-mml-node=&quot;TeXAtom&quot; style=&quot;font-size: 15px;&quot;&gt;&lt;g data-mml-node=&quot;mi&quot; style=&quot;font-size: 15px;&quot;&gt;&lt;use xlink:href=&quot;#MJX-1-TEX-I-1D43B&quot; data-c=&quot;1D43B&quot; style=&quot;font-size: 15px;&quot;&gt;&lt;/use&gt;&lt;/g&gt;&lt;/g&gt;&lt;g data-mjx-texclass=&quot;ORD&quot; transform=&quot;translate(973.9,413) scale(0.707)&quot; data-mml-node=&quot;TeXAtom&quot; style=&quot;font-size: 15px;&quot;&gt;&lt;g data-mml-node=&quot;mi&quot; style=&quot;font-size: 15px;&quot;&gt;&lt;use xlink:href=&quot;#MJX-1-TEX-V-2032&quot; data-c=&quot;2032&quot; style=&quot;font-size: 15px;&quot;&gt;&lt;/use&gt;&lt;/g&gt;&lt;/g&gt;&lt;/g&gt;&lt;/g&gt;&lt;/g&gt;&lt;/svg&gt;" style="text;html=1;align=center;verticalAlign=middle;resizable=0;points=[];autosize=1;strokeColor=none;fillColor=none;fontSize=15;" vertex="1" parent="1">
          <mxGeometry x="420" y="285" width="40" height="30" as="geometry" />
        </mxCell>
        <mxCell id="N6eUA97ssRl3NSmHeEUC-10" value="$${H}$$" style="text;html=1;align=center;verticalAlign=middle;resizable=0;points=[];autosize=1;strokeColor=none;fillColor=none;fontSize=15;" vertex="1" parent="1">
          <mxGeometry x="295" y="285" width="80" height="30" as="geometry" />
        </mxCell>
        <mxCell id="N6eUA97ssRl3NSmHeEUC-11" value="$${A}^{T}$$" style="text;html=1;align=center;verticalAlign=middle;resizable=0;points=[];autosize=1;strokeColor=none;fillColor=none;fontSize=15;" vertex="1" parent="1">
          <mxGeometry x="285" y="240" width="100" height="30" as="geometry" />
        </mxCell>
        <mxCell id="N6eUA97ssRl3NSmHeEUC-12" value="" style="endArrow=classic;html=1;rounded=0;exitX=0.75;exitY=0.667;exitDx=0;exitDy=0;exitPerimeter=0;entryX=0.1;entryY=0.05;entryDx=0;entryDy=0;entryPerimeter=0;" edge="1" parent="1" source="N6eUA97ssRl3NSmHeEUC-11" target="N6eUA97ssRl3NSmHeEUC-9">
          <mxGeometry width="50" height="50" relative="1" as="geometry">
            <mxPoint x="390" y="410" as="sourcePoint" />
            <mxPoint x="410" y="280" as="targetPoint" />
          </mxGeometry>
        </mxCell>
        <mxCell id="N6eUA97ssRl3NSmHeEUC-13" value="" style="endArrow=classic;html=1;rounded=0;exitX=1;exitY=0.5;exitDx=0;exitDy=0;exitPerimeter=0;" edge="1" parent="1">
          <mxGeometry width="50" height="50" relative="1" as="geometry">
            <mxPoint x="465" y="299.5" as="sourcePoint" />
            <mxPoint x="525" y="299.5" as="targetPoint" />
          </mxGeometry>
        </mxCell>
        <mxCell id="N6eUA97ssRl3NSmHeEUC-14" value="解码器" style="rounded=1;whiteSpace=wrap;html=1;fontSize=15;fillColor=#dae8fc;strokeColor=#6c8ebf;" vertex="1" parent="1">
          <mxGeometry x="530" y="275" width="100" height="50" as="geometry" />
        </mxCell>
        <mxCell id="N6eUA97ssRl3NSmHeEUC-15" value="" style="endArrow=classic;html=1;rounded=0;exitX=1;exitY=0.5;exitDx=0;exitDy=0;exitPerimeter=0;" edge="1" parent="1">
          <mxGeometry width="50" height="50" relative="1" as="geometry">
            <mxPoint x="640" y="299.5" as="sourcePoint" />
            <mxPoint x="700" y="299.5" as="targetPoint" />
          </mxGeometry>
        </mxCell>
        <mxCell id="N6eUA97ssRl3NSmHeEUC-17" value="$$\hat{X}$$" style="text;html=1;align=center;verticalAlign=middle;resizable=0;points=[];autosize=1;strokeColor=none;fillColor=none;fontSize=15;" vertex="1" parent="1">
          <mxGeometry x="675" y="285" width="100" height="30" as="geometry" />
        </mxCell>
      </root>
    </mxGraphModel>
  </diagram>
</mxfile>
